<svg xmlns="http://www.w3.org/2000/svg" xmlns:xlink="http://www.w3.org/1999/xlink" width="1080" zoomAndPan="magnify" viewBox="0 0 810 809.999993" height="1080" preserveAspectRatio="xMidYMid meet" version="1.0"><defs><g/><clipPath id="89f3ac71e0"><path d="M 528.234375 270.511719 L 650 270.511719 L 650 481.613281 L 528.234375 481.613281 Z M 528.234375 270.511719 " clip-rule="nonzero"/></clipPath><clipPath id="1577b7c73c"><path d="M 598.023438 270.511719 L 799.238281 270.511719 L 799.238281 470 L 598.023438 470 Z M 598.023438 270.511719 " clip-rule="nonzero"/></clipPath></defs><g fill="#04141e" fill-opacity="1"><g transform="translate(0.0000035, 481.833305)"><g><path d="M 43.984375 -146.3125 L 43.984375 -29.265625 L 94.34375 -29.265625 L 94.34375 0 L 10.640625 0 L 10.640625 -146.3125 Z M 43.984375 -146.3125 "/></g></g></g><g fill="#04141e" fill-opacity="1"><g transform="translate(91.324218, 481.833305)"><g/></g></g><g fill="#04141e" fill-opacity="1"><g transform="translate(130.867819, 481.833305)"><g/></g></g><g fill="#04141e" fill-opacity="1"><g transform="translate(170.41142, 481.833305)"><g/></g></g><g fill="#04141e" fill-opacity="1"><g transform="translate(209.955018, 481.833305)"><g/></g></g><g fill="#04141e" fill-opacity="1"><g transform="translate(249.503901, 481.833305)"><g><path d="M 43.984375 -90.796875 L 43.984375 0 L 10.640625 0 L 10.640625 -146.3125 L 43.984375 -146.3125 L 102.15625 -55.515625 L 102.5 -55.515625 L 102.5 -146.3125 L 135.84375 -146.3125 L 135.84375 0 L 102.5 0 L 44.34375 -90.796875 Z M 43.984375 -90.796875 "/></g></g></g><g fill="#04141e" fill-opacity="1"><g transform="translate(387.109979, 481.833305)"><g><path d="M 143.828125 0 L 97.890625 0 L 43.984375 -62.078125 L 43.984375 0 L 10.640625 0 L 10.640625 -146.3125 L 43.984375 -146.3125 L 43.984375 -86.546875 L 94.171875 -146.3125 L 134.609375 -146.3125 L 75.71875 -76.96875 Z M 143.828125 0 "/></g></g></g><path fill="#07633c" d="M 192.652344 398.105469 C 188.265625 393.71875 183.417969 388.871094 179.035156 384.484375 C 169.738281 375.1875 152.828125 376.269531 141.347656 387.75 C 132.175781 396.921875 120.917969 408.179688 111.746094 417.351562 C 100.261719 428.835938 99.1875 445.742188 108.480469 455.035156 C 112.867188 459.421875 117.714844 464.269531 122.101562 468.65625 C 131.398438 477.953125 148.304688 476.875 159.789062 465.394531 C 166.296875 458.882812 173.855469 451.324219 180.976562 444.203125 C 182.816406 442.363281 182.816406 439.375 180.976562 437.535156 C 179.136719 435.691406 176.148438 435.691406 174.308594 437.535156 C 167.1875 444.652344 159.628906 452.214844 153.117188 458.722656 C 145.664062 466.179688 134.808594 468.023438 128.769531 461.988281 C 128.769531 461.988281 115.148438 448.367188 115.148438 448.367188 C 109.113281 442.332031 110.957031 431.476562 118.414062 424.019531 C 127.585938 414.851562 138.84375 403.589844 148.015625 394.421875 C 155.472656 386.960938 166.328125 385.117188 172.363281 391.152344 C 172.363281 391.152344 185.984375 404.773438 185.984375 404.773438 C 187.824219 406.613281 190.8125 406.613281 192.652344 404.773438 C 194.492188 402.933594 194.492188 399.945312 192.652344 398.105469 Z M 153.199219 410.320312 C 157.585938 414.703125 162.433594 419.554688 166.820312 423.9375 C 176.113281 433.234375 193.027344 432.152344 204.503906 420.675781 C 213.675781 411.503906 224.933594 400.246094 234.105469 391.074219 C 245.589844 379.589844 246.664062 362.683594 237.371094 353.386719 C 232.984375 349 228.136719 344.152344 223.75 339.765625 C 214.457031 330.472656 197.546875 331.546875 186.066406 343.03125 C 179.558594 349.539062 171.996094 357.097656 164.875 364.21875 C 163.035156 366.058594 163.035156 369.050781 164.875 370.886719 C 166.714844 372.730469 169.707031 372.730469 171.542969 370.886719 C 178.664062 363.773438 186.226562 356.207031 192.734375 349.699219 C 200.191406 342.242188 211.046875 340.398438 217.082031 346.4375 C 217.082031 346.4375 230.703125 360.054688 230.703125 360.054688 C 236.738281 366.09375 234.894531 376.949219 227.4375 384.40625 C 218.265625 393.574219 207.007812 404.835938 197.835938 414.003906 C 190.378906 421.464844 179.523438 423.308594 173.488281 417.269531 C 173.488281 417.269531 159.867188 403.652344 159.867188 403.652344 C 158.027344 401.8125 155.039062 401.8125 153.199219 403.652344 C 151.359375 405.488281 151.359375 408.480469 153.199219 410.320312 Z M 153.199219 410.320312 " fill-opacity="1" fill-rule="evenodd"/><g clip-path="url(#89f3ac71e0)"><path fill="#04141e" d="M 649.320312 480.242188 C 644.144531 481.175781 638.871094 481.648438 633.527344 481.648438 C 621.59375 481.648438 610.011719 479.308594 599.09375 474.691406 C 588.558594 470.234375 579.105469 463.859375 570.988281 455.742188 C 562.871094 447.625 556.496094 438.171875 552.039062 427.636719 C 547.421875 416.71875 545.082031 405.136719 545.082031 393.203125 L 545.082031 316.417969 L 528.347656 316.417969 L 563.109375 270.632812 L 597.867188 316.417969 L 581.855469 316.417969 L 581.855469 393.203125 C 581.855469 394.890625 581.9375 396.558594 582.09375 398.203125 L 582.09375 405.222656 C 582.09375 425.375 589.945312 444.328125 604.199219 458.582031 C 616.488281 470.875 632.28125 478.40625 649.320312 480.242188 " fill-opacity="1" fill-rule="nonzero"/></g><g clip-path="url(#1577b7c73c)"><path fill="#04141e" d="M 737.066406 358.757812 L 721.96875 358.757812 L 721.96875 307.480469 L 737.066406 307.480469 C 751.070312 307.480469 762.46875 318.984375 762.46875 333.121094 C 762.46875 347.257812 751.070312 358.757812 737.066406 358.757812 Z M 781.128906 289.039062 C 769.398438 277.222656 753.75 270.710938 737.066406 270.710938 L 721.96875 270.710938 L 685.199219 270.511719 L 685.199219 393.203125 C 685.199219 421.695312 662.019531 444.875 633.527344 444.875 C 619.898438 444.875 607.484375 439.570312 598.242188 430.917969 C 608.195312 453.820312 631.039062 469.871094 657.558594 469.871094 C 669.621094 469.871094 680.929688 466.550781 690.601562 460.769531 C 692.484375 459.179688 694.308594 457.5 696.066406 455.742188 C 704.183594 447.625 710.554688 438.171875 715.011719 427.636719 C 719.328125 417.433594 721.65625 406.644531 721.941406 395.53125 L 737.066406 395.53125 C 753.75 395.53125 769.398438 389.019531 781.128906 377.199219 C 792.804688 365.433594 799.238281 349.777344 799.238281 333.121094 C 799.238281 316.460938 792.804688 300.808594 781.128906 289.039062 " fill-opacity="1" fill-rule="nonzero"/></g></svg>