<svg xmlns="http://www.w3.org/2000/svg" xmlns:xlink="http://www.w3.org/1999/xlink" width="2592" zoomAndPan="magnify" viewBox="0 0 1944 647.999998" height="864" preserveAspectRatio="xMidYMid meet" version="1.0"><defs><g/><clipPath id="0e37c49478"><path d="M 1253.519531 41.019531 L 1539 41.019531 L 1539 537.871094 L 1253.519531 537.871094 Z M 1253.519531 41.019531 " clip-rule="nonzero"/></clipPath><clipPath id="eaa5832aa1"><path d="M 1418 41.019531 L 1891.359375 41.019531 L 1891.359375 511 L 1418 511 Z M 1418 41.019531 " clip-rule="nonzero"/></clipPath></defs><g fill="#04141e" fill-opacity="1"><g transform="translate(10.254589, 538.386123)"><g><path d="M 103.515625 -344.34375 L 103.515625 -68.875 L 222.046875 -68.875 L 222.046875 0 L 25.046875 0 L 25.046875 -344.34375 Z M 103.515625 -344.34375 "/></g></g></g><g fill="#04141e" fill-opacity="1"><g transform="translate(225.197283, 538.386123)"><g/></g></g><g fill="#04141e" fill-opacity="1"><g transform="translate(318.267979, 538.386123)"><g/></g></g><g fill="#04141e" fill-opacity="1"><g transform="translate(411.338674, 538.386123)"><g/></g></g><g fill="#04141e" fill-opacity="1"><g transform="translate(504.409362, 538.386123)"><g/></g></g><g fill="#04141e" fill-opacity="1"><g transform="translate(597.49249, 538.386123)"><g><path d="M 103.515625 -213.703125 L 103.515625 0 L 25.046875 0 L 25.046875 -344.34375 L 103.515625 -344.34375 L 240.421875 -130.640625 L 241.25 -130.640625 L 241.25 -344.34375 L 319.71875 -344.34375 L 319.71875 0 L 241.25 0 L 104.34375 -213.703125 Z M 103.515625 -213.703125 "/></g></g></g><g fill="#04141e" fill-opacity="1"><g transform="translate(921.365205, 538.386123)"><g><path d="M 338.5 0 L 230.40625 0 L 103.515625 -146.09375 L 103.515625 0 L 25.046875 0 L 25.046875 -344.34375 L 103.515625 -344.34375 L 103.515625 -203.6875 L 221.640625 -344.34375 L 316.796875 -344.34375 L 178.21875 -181.140625 Z M 338.5 0 "/></g></g></g><path fill="#07633c" d="M 463.6875 341.320312 C 453.363281 330.996094 441.953125 319.585938 431.632812 309.265625 C 409.753906 287.386719 369.949219 289.929688 342.933594 316.945312 C 321.34375 338.535156 294.851562 365.027344 273.261719 386.617188 C 246.234375 413.644531 243.703125 453.4375 265.582031 475.316406 C 275.902344 485.640625 287.3125 497.050781 297.636719 507.371094 C 319.511719 529.25 359.304688 526.71875 386.332031 499.691406 C 401.652344 484.375 419.445312 466.582031 436.203125 449.820312 C 440.535156 445.492188 440.535156 438.453125 436.203125 434.125 C 431.875 429.785156 424.839844 429.785156 420.511719 434.125 C 403.75 450.875 385.957031 468.679688 370.640625 483.996094 C 353.089844 501.542969 327.539062 505.882812 313.332031 491.675781 C 313.332031 491.675781 281.273438 459.621094 281.273438 459.621094 C 267.066406 445.414062 271.40625 419.863281 288.957031 402.3125 C 310.546875 380.734375 337.039062 354.230469 358.628906 332.652344 C 376.175781 315.089844 401.730469 310.75 415.9375 324.960938 C 415.9375 324.960938 447.992188 357.015625 447.992188 357.015625 C 452.320312 361.34375 459.359375 361.34375 463.6875 357.015625 C 468.015625 352.6875 468.015625 345.648438 463.6875 341.320312 Z M 370.828125 370.070312 C 381.148438 380.390625 392.5625 391.800781 402.882812 402.125 C 424.761719 424.003906 464.566406 421.460938 491.582031 394.445312 C 513.171875 372.855469 539.664062 346.359375 561.253906 324.769531 C 588.28125 297.742188 590.8125 257.949219 568.933594 236.074219 C 558.613281 225.75 547.203125 214.339844 536.878906 204.015625 C 515 182.140625 475.210938 184.671875 448.179688 211.699219 C 432.863281 227.015625 415.070312 244.808594 398.308594 261.570312 C 393.980469 265.898438 393.980469 272.933594 398.308594 277.265625 C 402.640625 281.605469 409.675781 281.605469 414.003906 277.265625 C 430.765625 260.515625 448.558594 242.710938 463.875 227.394531 C 481.425781 209.84375 506.976562 205.503906 521.183594 219.710938 C 521.183594 219.710938 553.242188 251.769531 553.242188 251.769531 C 567.449219 265.976562 563.109375 291.527344 545.558594 309.074219 C 523.96875 330.652344 497.476562 357.160156 475.886719 378.738281 C 458.335938 396.296875 432.785156 400.636719 418.578125 386.429688 C 418.578125 386.429688 386.523438 354.375 386.523438 354.375 C 382.195312 350.042969 375.15625 350.042969 370.828125 354.375 C 366.5 358.703125 366.5 365.738281 370.828125 370.070312 Z M 370.828125 370.070312 " fill-opacity="1" fill-rule="evenodd"/><g clip-path="url(#0e37c49478)"><path fill="#04141e" d="M 1538.507812 534.644531 C 1526.328125 536.84375 1513.910156 537.949219 1501.335938 537.949219 C 1473.253906 537.949219 1445.988281 532.4375 1420.292969 521.574219 C 1395.503906 511.085938 1373.25 496.085938 1354.140625 476.976562 C 1335.039062 457.871094 1320.039062 435.621094 1309.550781 410.828125 C 1298.683594 385.132812 1293.175781 357.875 1293.175781 329.785156 L 1293.175781 149.058594 L 1253.789062 149.058594 L 1335.597656 41.300781 L 1417.410156 149.058594 L 1379.722656 149.058594 L 1379.722656 329.785156 C 1379.722656 333.757812 1379.910156 337.679688 1380.289062 341.550781 L 1380.289062 358.070312 C 1380.289062 405.507812 1398.761719 450.113281 1432.308594 483.664062 C 1461.238281 512.59375 1498.402344 530.316406 1538.507812 534.644531 " fill-opacity="1" fill-rule="nonzero"/></g><g clip-path="url(#eaa5832aa1)"><path fill="#04141e" d="M 1745.035156 248.714844 L 1709.5 248.714844 L 1709.5 128.027344 L 1745.035156 128.027344 C 1777.996094 128.027344 1804.8125 155.097656 1804.8125 188.375 C 1804.8125 221.644531 1777.996094 248.714844 1745.035156 248.714844 Z M 1848.734375 84.625 C 1821.128906 56.808594 1784.296875 41.484375 1745.035156 41.484375 L 1709.5 41.484375 L 1622.953125 41.019531 L 1622.953125 329.785156 C 1622.953125 396.84375 1568.394531 451.402344 1501.335938 451.402344 C 1469.257812 451.402344 1440.042969 438.917969 1418.289062 418.554688 C 1441.722656 472.449219 1495.484375 510.230469 1557.902344 510.230469 C 1586.292969 510.230469 1612.902344 502.414062 1635.667969 488.8125 C 1640.097656 485.0625 1644.390625 481.117188 1648.53125 476.976562 C 1667.632812 457.871094 1682.636719 435.621094 1693.125 410.828125 C 1703.28125 386.8125 1708.757812 361.417969 1709.429688 335.261719 L 1745.035156 335.261719 C 1784.296875 335.261719 1821.128906 319.941406 1848.734375 292.121094 C 1876.21875 264.421875 1891.355469 227.578125 1891.355469 188.375 C 1891.355469 149.167969 1876.21875 112.320312 1848.734375 84.625 " fill-opacity="1" fill-rule="nonzero"/></g></svg>